<?xml version="1.0" encoding="UTF-8"?><svg id="_イヤー_1" xmlns="http://www.w3.org/2000/svg" viewBox="0 0 55.49 68.02"><defs><style>.cls-1{fill:#cf8043;}</style></defs><rect class="cls-1" x="33.23" y="12.91" width="4.5" height="60.91" rx="1.58" ry="1.58" transform="translate(-19.25 31.35) rotate(-38.33)"/><path class="cls-1" d="M18.84,22.35s-5.83,4.18-10.11,.14C4.85,18.81,.74,8.11,.03,6.19c-.07-.18,0-.38,.14-.5l.74-.59c.18-.15,.45-.12,.6,.05l9.35,10.86c.15,.18,.42,.2,.6,.05h0c.18-.15,.22-.41,.09-.6L3.14,3.88c-.14-.19-.1-.45,.09-.6l.67-.53c.18-.14,.45-.12,.6,.05L14,13.55c.15,.17,.42,.2,.6,.05h0c.18-.15,.22-.41,.09-.6L6.28,1.4c-.14-.19-.1-.45,.09-.6L7.25,.1c.16-.13,.38-.13,.54,0,1.78,1.4,11.81,9.35,13.67,12.32,2.04,3.27,1.66,6.52-2.63,9.93Z"/></svg>