<?xml version="1.0" encoding="UTF-8"?><svg id="_イヤー_1" xmlns="http://www.w3.org/2000/svg" viewBox="0 0 1140.58 923.87"><defs><style>.cls-1{fill:#fff;}.cls-2{fill:#efefe9;}.cls-3{fill:#cf8043;}.cls-4{fill:#88ab97;}</style></defs><path class="cls-4" d="M955.27,219.87c-5.95-22.94-33.17-55.3-48.02-71.75-34.41-38.11-96.12-49.61-149.27-35.83-27.53,7.14-43.29,15.24-61.2,34.73-31.58,34.38-17.58,49.4-31.27,97.65-8.6,30.3,19.9,85.22,39.19,103.09,34.39,31.85,78.86,37.62,127.6,24.98,20.98-5.44,44.58-6.85,60.2-19.86,41.03-34.15,77.06-77.92,62.77-133.02Z"/><path class="cls-2" d="M574.78,139.28c-8.91-34.37-6.66-84.65-34.78-103.12-34.13-22.41-76.47-12.26-120.28-.89-79.91,20.72-130.41,80.69-110.68,156.77,6.52,25.14,19.7,46.87,37.31,63.95,35.7,34.63,59.52,55.83,113.03,41.95,39.95-10.36,102.19-40.82,121.91-72.54s3.36-48.08-6.51-86.12Z"/><path class="cls-2" d="M893.29,541.33c0,40.91,1.05,56.12-19.54,87.95-35.83,55.37-78.57,62.45-117.26,68.4-127.04,19.54-175.9-76.3-175.9-156.35s64.9-117.26,144.95-117.26c39.76,0,75.78,16.01,101.97,41.93,26.54,26.27,65.79,35.04,65.79,75.34Z"/><g><path class="cls-1" d="M667.48,639.58c.34,.38-.15,1.5,.19,1.87s.88,.56,1.23,.92,.94,.49,1.3,.84,.41,1.02,.77,1.37,.87,.56,1.23,.9,1.04,.35,1.42,.68,.86,.54,1.24,.86,.68,.75,1.06,1.07,.43,1.07,.82,1.38,1.31-.05,1.71,.25,.63,.83,1.03,1.12,.47,1.08,.88,1.36,.97,.38,1.38,.65,.68,.81,1.1,1.08,.89,.49,1.32,.75,1.06,.19,1.49,.44,.94,.37,1.38,.61,.75,.74,1.19,.97,1.05,.15,1.5,.37,1.01,.19,1.47,.4,.7,.88,1.16,1.08,1,.21,1.46,.4,.89,.48,1.36,.65,.91,.43,1.39,.59,1.13-.21,1.6-.06,.87,.54,1.35,.69,.8,.84,1.28,.98,.97,.3,1.45,.43,.93,.47,1.42,.58,1.16-.58,1.65-.48,.98,.22,1.47,.31,1.03-.12,1.53-.04,.95,.36,1.45,.43,.95,.42,1.45,.48,.94,.7,1.44,.75,1.07-.58,1.57-.54,1.01-.07,1.51-.04,.96,.94,1.46,.96,1.03-.57,1.53-.56,1-.04,1.51-.04,1.01,.45,1.51,.44,1-.41,1.5-.43,1.01,.02,1.51,0,.96-.74,1.46-.78,1.01,.11,1.51,.07,1.01,.05,1.51,0,.97-.33,1.46-.39,1.13,.96,1.63,.89,.95-.48,1.45-.56,1.03,.05,1.52-.04,.83-1.08,1.32-1.17,1.01-.02,1.5-.12,1.17,.69,1.66,.59,.81-.99,1.3-1.1,1.09,.26,1.58,.14,.91-.52,1.39-.64,1.12,.29,1.6,.15,.76-1,1.25-1.14,1.04-.03,1.52-.18,.84-.66,1.32-.81,1.05-.01,1.53-.17,1.02-.13,1.49-.3,.67-1.09,1.15-1.26,1.36,.77,1.83,.59,.95-.34,1.42-.52,.62-1.16,1.08-1.35,1.1,.04,1.56-.16,.64-1.06,1.1-1.26,1.25,.35,1.71,.14,.81-.65,1.26-.86,.67-.93,1.12-1.15,.99-.26,1.44-.48,.95-.35,1.39-.58,.92-.41,1.36-.64,.89-.47,1.33-.7,.81-.62,1.24-.86,1.32,.28,1.75,.04,.9-.48,1.32-.73,.65-.87,1.08-1.13,.75-.71,1.17-.97c.42-.27,1.01-.27,1.44-.54s.52-1.06,.95-1.32,.73-.73,1.16-.99,1.3,.21,1.73-.05,.48-1.14,.91-1.4,1.36,.32,1.79,.07,.4-1.3,.83-1.56,1.38,.37,1.81,.12,.62-.93,1.05-1.18,.83-.56,1.27-.81,.81-.61,1.25-.85,.79-.64,1.22-.89,.81-.6,1.25-.85,1.21,.1,1.65-.14,.39-1.36,.83-1.6,1.4,.44,1.84,.19,.84-.56,1.27-.81,.43-1.28,.87-1.53,1.22,.12,1.66-.13,.82-.59,1.26-.84,1.09-.11,1.53-.36,.61-.96,1.05-1.21,1.2,.07,1.63-.18,.85-.55,1.28-.8,.84-.57,1.27-.82,.64-.9,1.08-1.15,1.03-.22,1.47-.48,.72-.76,1.16-1.01,.87-.5,1.3-.76,1.02-.26,1.45-.51,.57-1,1-1.26,.79-.64,1.22-.9,1.18,0,1.61-.26,.69-.81,1.11-1.07,1.19,0,1.61-.27,.77-.67,1.19-.94,.46-1.14,.89-1.41,.67-.81,1.09-1.08,1.11-.14,1.53-.42,.91-.45,1.33-.73,.82-.58,1.24-.87,1.09-.21,1.5-.5,.63-.85,1.04-1.15,1.14-.16,1.54-.45,.25-1.34,.65-1.65,.81-.6,1.2-.91,1.35,.08,1.74-.24,.34-1.19,.73-1.5,1.23-.1,1.61-.42,.62-.84,.99-1.17,.11-1.4,.48-1.73,.9-.5,1.26-.84,1.09-.3,1.46-.65,.93-.5,1.28-.85,.63-.8,.98-1.16-.03-1.41,.31-1.78,.98-.46,1.31-.83,1.06-.41,1.38-.8,.68-.75,.99-1.14,.49-.9,.79-1.3,.37-.98,.66-1.38,1.17-.41,1.45-.82,.16-1.11,.43-1.53,.29-1,.55-1.43,1.24-.44,1.49-.87,.37-.96,.61-1.4-.01-1.14,.21-1.59,.34-.95,.55-1.4,1.26-.55,1.45-1.01,.34-.97,.52-1.43-.48-1.25-.32-1.72,.9-.76,1.05-1.24-.33-1.14-.2-1.63,.03-1.01,.15-1.5,.29-.94,.4-1.44,1.31-.78,1.4-1.27-.32-1.07-.25-1.57-.17-1.03-.12-1.53-.02-1,.02-1.5,.62-.97,.64-1.47-.51-1.01-.5-1.52,.31-1,.3-1.5-.23-.99-.26-1.5,.16-1.01,.12-1.51,.36-1.04,.31-1.55-.75-.93-.81-1.43,.61-1.1,.53-1.6-.79-.89-.88-1.39-.52-.91-.62-1.41-.45-.92-.56-1.41,.69-1.19,.57-1.68-.93-.79-1.06-1.28,.7-1.24,.56-1.73-1-.75-1.15-1.22-.16-1-.32-1.47-.46-.9-.63-1.37-.31-.95-.49-1.42-.87-.73-1.06-1.19,.25-1.19,.05-1.64-1.01-.64-1.22-1.09-.13-1.04-.35-1.49,.07-1.16-.16-1.6-.57-.84-.81-1.28-.29-.99-.54-1.43-1.35-.36-1.61-.79-.3-.98-.57-1.4-.25-1.03-.53-1.45-.17-1.11-.46-1.51-1.34-.26-1.64-.66-.01-1.25-.32-1.64-1.36-.19-1.67-.58-.67-.72-1-1.1,.26-1.56-.07-1.93-1.11-.34-1.45-.71-.89-.52-1.24-.88-.31-1.11-.67-1.45-.9-.51-1.27-.85-.83-.57-1.21-.9-.46-1-.84-1.32-.86-.54-1.24-.86-.89-.5-1.28-.8-.78-.63-1.17-.93-.92-.44-1.32-.73-.4-1.17-.81-1.46-.87-.51-1.29-.79-.84-.55-1.26-.82-1.22,.06-1.65-.2-.66-.84-1.09-1.1-.8-.61-1.23-.86-.77-.67-1.21-.91-.97-.32-1.41-.55-.9-.45-1.34-.67-.72-.81-1.17-1.03-.92-.41-1.37-.62-1.4,.65-1.85,.45-.81-.61-1.27-.81-.68-.95-1.14-1.14-.96-.29-1.43-.48-.95-.33-1.41-.51-1.08,.03-1.54-.15-1.05-.01-1.52-.18-.59-1.35-1.06-1.51-1.26,.64-1.74,.49-.6-1.41-1.08-1.56-1.11,.2-1.59,.05-.83-.73-1.31-.87-1.08,.14-1.56,0-.92-.45-1.4-.57-1.12,.33-1.6,.21-.84-.76-1.33-.88-.92-.49-1.4-.6-1.22,.87-1.7,.76-.84-.83-1.33-.93-1.04,.08-1.52-.01-.97-.23-1.46-.32-1.05,.21-1.54,.12-.91-.59-1.41-.67-1-.09-1.49-.17-.96-.37-1.45-.44-1.06,.34-1.55,.28-.92-.65-1.42-.71-1.07,.51-1.56,.45-.95-.44-1.45-.49-.94-.6-1.44-.65-.97-.37-1.47-.41-1.01,.01-1.5-.03-1.01,.01-1.5-.03-1-.12-1.49-.15-1.05,.62-1.54,.59-.99-.16-1.49-.19-1.01,.16-1.5,.14-.99-.33-1.48-.35-.98-.81-1.47-.82-1.02,.56-1.51,.55-1-.49-1.49-.49-1.01,.38-1.5,.38c-.51,0-1.01,.38-1.49,.38-.51,0-1,.14-1.48,.15-.51,0-1.02-.31-1.49-.3s-1-.13-1.5-.11-.97,.74-1.47,.77-1.04-.96-1.54-.94-.94,.98-1.44,1.01-1.05-.79-1.55-.76-.95,.71-1.45,.75-1.05-.57-1.54-.53-1,.03-1.5,.08-1.01-.07-1.51-.02-1.01-.02-1.51,.03-.94,.6-1.43,.65-.97,.25-1.47,.32-1.02-.11-1.52-.05-.92,.62-1.41,.7-1.02-.12-1.52-.04-.88,.83-1.37,.91-1.04-.21-1.53-.12-1.07-.34-1.56-.25-1.05-.17-1.54-.07-.88,.73-1.37,.83-.96,.28-1.45,.38-.9,.53-1.39,.64-1.08-.24-1.56-.12-.88,.61-1.37,.73-.96,.25-1.45,.38-1.17-.5-1.65-.37-.76,.99-1.25,1.13-1.1-.2-1.58-.06-.77,.92-1.24,1.07-1.15-.34-1.63-.19-.96,.28-1.44,.43-.68,1.1-1.15,1.27-1.28-.63-1.75-.46-.75,.87-1.21,1.05-1.06,.02-1.53,.2-.86,.56-1.32,.75-1.14-.13-1.6,.06-.9,.45-1.36,.65-.48,1.39-.93,1.6-1.32-.49-1.77-.28-.71,.84-1.16,1.06-.64,.96-1.08,1.19-.88,.45-1.33,.68-1.14-.02-1.58,.21-.8,.61-1.24,.85-1.25-.18-1.68,.07-.46,1.19-.89,1.45-1.17,0-1.6,.25-.82,.58-1.24,.85-.45,1.13-.87,1.41-1.31-.16-1.73,.12-.35,1.25-.76,1.54-1.36-.18-1.76,.12-.73,.7-1.13,1-.87,.52-1.27,.83-.39,1.12-.78,1.43-.47,.99-.86,1.31-1.28,.04-1.65,.37-.49,.95-.86,1.29-.85,.55-1.22,.89-.71,.7-1.07,1.05-1.06,.35-1.42,.7,.02,1.42-.33,1.78-.67,.72-1.02,1.09-.83,.58-1.17,.95-.67,.73-1,1.11-.51,.87-.83,1.26-.86,.58-1.17,.97-.69,.72-1,1.11-.59,.8-.9,1.2-1.07,.45-1.36,.86,.28,1.43,0,1.84-1.37,.27-1.65,.68-.68,.75-.96,1.17-.16,1.09-.43,1.51-.12,1.1-.37,1.52-.79,.68-1.05,1.12-.76,.72-1,1.16-.33,.96-.57,1.4-.76,.73-1,1.18-.73,.76-.96,1.21,.62,1.41,.41,1.86-.81,.72-1.01,1.17-.06,1.06-.26,1.52-1.36,.52-1.54,.98,.06,1.11-.11,1.57-.63,.84-.8,1.31,.48,1.22,.32,1.7-.87,.76-1.02,1.24,.19,1.1,.05,1.58-.64,.85-.77,1.33,.29,1.1,.17,1.59-.9,.8-1.01,1.29,.02,1.03-.08,1.51-.95,.83-1.05,1.32,.81,1.16,.73,1.65-.11,.98-.19,1.48-.2,.97-.27,1.46-.22,.97-.27,1.47,0,1-.05,1.49,.11,1,.07,1.5-1.22,.93-1.24,1.42,.51,1.03,.49,1.52-.62,.99-.63,1.49,.67,1,.68,1.5-.42,1.01-.4,1.51,.28,.99,.3,1.49,.62,.96,.65,1.46-.53,1.04-.48,1.53,.6,.95,.65,1.44,.03,1,.09,1.49,.12,.99,.19,1.48-.67,1.11-.59,1.6,1.27,.8,1.36,1.29-.01,1.01,.08,1.5-.04,1.02,.07,1.51-.13,1.05-.02,1.54,.47,.92,.59,1.4-.18,1.08-.05,1.56,1.04,.75,1.18,1.23-.1,1.06,.05,1.54,.65,.84,.8,1.31-.59,1.24-.43,1.71,.6,.86,.76,1.32,.24,.98,.41,1.45,1.04,.67,1.22,1.14,.53,.86,.72,1.32,0,1.07,.2,1.53-.17,1.17,.03,1.62,.32,.96,.52,1.41,1.47,.41,1.68,.86-.23,1.22,0,1.67,.84,.69,1.07,1.13,.39,.92,.62,1.36-.05,1.17,.19,1.6,.68,.77,.93,1.2,.99,.58,1.24,1,.66,.76,.92,1.18,.19,1.06,.46,1.47,.15,1.1,.43,1.51,1.34,.3,1.62,.7-.41,1.51-.12,1.91,.59,.82,.88,1.22,.6,.81,.9,1.2,1.4,.18,1.7,.56,.08,1.22,.39,1.6,1.03,.44,1.35,.81,.91,.52,1.24,.88Z"/><polygon class="cls-3" points="757.62 579.56 757.57 580.43 757.31 581.25 757.05 582.06 756.83 582.89 756.32 583.63 756.17 584.47 755.96 585.3 755.6 586.07 755.38 586.9 755.07 587.7 755.03 588.61 754.3 589.22 754.11 590.07 753.96 590.94 753.39 591.62 752.99 592.37 752.54 593.1 752.06 593.81 751.82 594.66 751.13 595.24 750.85 596.07 750.39 596.79 749.68 597.34 749.46 598.23 749.08 599.02 748.23 599.44 747.72 600.12 747.31 600.89 746.74 601.53 746.08 602.08 745.68 602.88 744.91 603.33 744.19 603.81 743.9 604.74 743.27 605.32 742.63 605.89 741.67 606.09 741.11 606.75 740.35 607.16 739.88 607.94 739.23 608.5 738.31 608.69 737.61 609.17 737.19 610.07 736.25 610.19 735.52 610.63 734.95 611.33 734.14 611.65 733.29 611.87 732.7 612.57 731.92 612.92 731.16 613.32 730.25 613.38 729.44 613.66 728.73 614.16 728.06 614.79 727.15 614.79 726.3 614.95 725.53 615.32 724.78 615.77 723.95 615.99 723.04 615.9 722.23 616.17 721.45 616.55 720.64 616.87 719.8 617.03 718.91 616.9 718.09 617.14 717.24 617.21 716.4 617.37 715.55 617.44 714.69 617.35 713.85 617.6 713 617.55 712.15 617.77 711.3 617.54 710.45 617.95 709.6 617.62 708.74 617.68 707.9 617.52 707.05 617.45 706.2 617.41 705.31 617.7 704.45 617.61 703.67 617.06 702.85 616.8 701.93 617.09 701.15 616.63 700.25 616.74 699.43 616.47 698.68 615.96 697.78 616 696.99 615.68 696.18 615.39 695.4 615.04 694.55 614.89 693.8 614.45 693.06 614.01 692.18 613.91 691.37 613.64 690.51 613.45 689.71 613.13 688.97 612.69 688.28 612.16 687.57 611.69 686.89 611.15 686.01 610.96 685.44 610.26 684.79 609.7 683.88 609.52 683.14 609.08 682.58 608.39 681.81 608 681.38 607.17 680.53 606.86 679.8 606.4 679.21 605.77 678.65 605.12 678.05 604.51 677.48 603.87 676.87 603.29 676.06 602.87 675.59 602.14 675 601.52 674.7 600.66 673.81 600.29 673.21 599.67 673.09 598.69 672.18 598.29 671.74 597.55 671.42 596.74 671.06 595.96 670.68 595.19 670.22 594.48 669.54 593.89 669.35 593.01 668.57 592.46 668.33 591.62 667.77 590.95 667.86 589.96 667.13 589.35 667 588.48 666.76 587.66 666.41 586.88 665.77 586.21 665.58 585.36 665.7 584.43 665.09 583.72 664.79 582.92 664.86 582.01 664.82 581.15 664.13 580.43 664.29 579.52 664.15 578.68 664.09 577.83 663.55 577.05 663.85 576.15 663.32 575.35 663.59 574.47 663.48 573.62 663.29 572.78 662.99 571.94 663 571.08 663.34 570.22 663.46 569.37 663.42 568.52 663.09 567.66 663.55 566.83 663.23 565.95 663.56 565.12 663.32 564.23 663.79 563.43 663.58 562.54 663.8 561.7 664.14 560.9 663.98 559.99 664.65 559.26 664.65 558.39 665.03 557.61 664.79 556.65 665.13 555.86 665.62 555.12 665.96 554.33 666.35 553.56 666.2 552.6 666.59 551.83 667.25 551.18 667.28 550.27 667.71 549.52 668.06 548.74 668.53 548.02 668.64 547.11 669.4 546.56 669.84 545.83 670.35 545.14 670.49 544.22 671.24 543.69 671.33 542.72 671.81 542.01 672.51 541.46 672.85 540.64 673.5 540.07 674.13 539.47 674.47 538.64 675.35 538.27 675.78 537.52 676.45 536.98 676.73 536.06 677.48 535.6 678.07 534.98 678.6 534.29 679.36 533.86 680.16 533.48 680.68 532.78 681.31 532.19 682.17 531.91 682.69 531.19 683.32 530.6 684.06 530.17 684.75 529.65 685.6 529.4 686.26 528.85 687.1 528.59 687.71 527.94 688.34 527.31 689.29 527.28 690.07 526.95 690.7 526.28 691.54 526.07 692.31 525.7 693.05 525.24 693.97 525.24 694.68 524.73 695.51 524.52 696.24 524 697.05 523.71 697.94 523.7 698.73 523.37 699.52 523.01 700.4 522.97 701.24 522.83 702.13 522.92 702.92 522.54 703.74 522.22 704.59 522.13 705.48 522.36 706.33 522.29 707.17 522.21 708.01 522 708.85 521.73 709.71 521.85 710.56 521.8 711.42 522.02 712.27 521.92 713.12 522.08 713.97 522.11 714.81 522.27 715.69 521.99 716.5 522.38 717.39 522.14 718.22 522.44 719.07 522.48 719.89 522.75 720.74 522.88 721.6 522.94 722.44 523.11 723.25 523.4 724.11 523.52 724.96 523.67 725.62 524.4 726.43 524.66 727.4 524.5 728.14 524.96 728.87 525.44 729.75 525.54 730.4 526.18 731.24 526.4 731.94 526.91 732.92 526.87 733.67 527.29 734.18 528.14 734.97 528.46 735.78 528.77 736.41 529.38 737.17 529.77 737.99 530.09 738.73 530.52 739.39 531.07 739.92 531.78 740.83 532.02 741.41 532.66 741.89 533.41 742.6 533.9 743.14 534.57 743.78 535.14 744.5 535.62 745.15 536.18 745.64 536.89 746.33 537.42 746.98 537.98 747.37 538.78 747.98 539.38 748.47 540.08 748.96 540.78 749.67 541.32 750.08 542.08 750.35 542.93 750.81 543.65 751.18 544.42 751.93 544.96 752.36 545.71 752.89 546.39 753.22 547.18 753.5 548 753.65 548.88 754.28 549.52 754.69 550.27 754.67 551.21 755.24 551.9 755.58 552.68 755.69 553.55 756.13 554.3 756.38 555.12 756.92 555.84 757.08 556.69 757.25 557.53 757.55 558.34 757.28 559.28 757.61 560.08 757.68 560.93 758.24 561.7 758.3 562.56 758.02 563.46 758.47 564.26 758.34 565.14 758.54 565.98 758.35 566.84 758.72 567.68 758.63 568.53 758.82 569.38 758.68 570.24 758.57 571.09 758.89 571.96 758.32 572.78 758.25 573.63 758.54 574.51 758.25 575.34 758.45 576.23 757.97 577.02 757.94 577.88 758.03 578.77 757.62 579.56"/></g><g><rect class="cls-3" x="856.78" y="576.28" width="5.94" height="80.41" rx=".91" ry=".91" transform="translate(-197.02 666.1) rotate(-38.33)"/><path class="cls-3" d="M837.79,588.73s-7.7,5.52-13.34,.18c-5.13-4.86-10.55-18.97-11.49-21.51-.09-.23-.01-.5,.19-.65l.98-.77c.24-.19,.6-.16,.8,.07l12.34,14.34c.2,.23,.55,.27,.8,.07h0c.24-.19,.29-.54,.11-.79l-11.1-15.32c-.18-.25-.13-.6,.11-.79l.88-.7c.24-.19,.59-.16,.79,.07l12.56,14.19c.2,.23,.55,.26,.79,.07h0c.24-.2,.29-.55,.11-.8l-11.1-15.32c-.18-.25-.13-.6,.11-.79l1.17-.92c.21-.17,.51-.17,.72,0,2.35,1.85,15.59,12.34,18.05,16.27,2.7,4.31,2.19,8.61-3.47,13.11Z"/></g><g><path class="cls-3" d="M853.27,509.19c4.77-2.01,13.81,3.11,18.42,11.85,4.65,8.82,1.92,18.8-4.37,21.46-6.29,2.65-15.27-2.38-18.42-11.85-3.4-10.23-.21-19.53,4.37-21.46Z"/><rect class="cls-3" x="876.59" y="531.69" width="5.94" height="80.41" rx=".91" ry=".91" transform="translate(-153.11 386.75) rotate(-22.87)"/></g><path class="cls-4" d="M277.76,0H17.57C6.18,23.8-5.04,43.38,2.39,72.02c9.22,35.57,19.43,50.28,47.9,68.98,32.43,21.3,67.69,48.27,125.59,33.05,26.94-7.08,50.11-21.26,67.87-40.16,12.03-12.79,17.75-39.95,24.37-56.16,11.19-27.41,17.8-46.3,9.79-77.17-.05-.19-.11-.38-.16-.57Z"/><path class="cls-4" d="M622.33,0c4.1,23.37,9.87,44.84,28.37,56.6,32.14,20.43,99.29,9.1,139.07-1.22,43.82-11.37,67.07-19.95,82.6-55.39h-250.03Z"/><path class="cls-2" d="M1140.58,300.81c-6.36-2.69-13-4.96-19.88-6.74-44.71-11.59-82.36,9.98-116.09,36.45-23.67,18.58-49.27,34.21-57.4,65.58-5.15,19.84-9.62,62.23,3.18,80.06,31.82,44.35,42.62,78.84,98.86,93.42,31.59,8.19,63.46,5.1,91.34-6.75V300.81Z"/><path class="cls-4" d="M1140.58,700.43c-16.59-17.29-37.31-30.15-60.11-37.34-24.6-7.76-48.61,3.69-80.99,16.92-44.82,18.32-74.78,16.07-90.39,58.29-9.73,26.31-2.88,59.79,1.35,76.12,9.42,36.31,6.74,79.43,36.08,98.08,32.14,20.43,99.29,9.1,139.07-1.22,23.65-6.13,41.3-11.46,54.99-20.62v-190.23Z"/><path class="cls-2" d="M1140.58,0h-196.98c-3.87,16.16-2.13,35.19,10.62,60.82,17.04,34.28,32.96,66.9,63.18,85.49,31.83,19.58,71.28,26.67,110.3,16.55,4.58-1.19,8.86-2.51,12.88-3.96V0Z"/></svg>