<?xml version="1.0" encoding="UTF-8"?><svg id="_イヤー_1" xmlns="http://www.w3.org/2000/svg" viewBox="0 0 635 647.69"><defs><style>.cls-1{fill:#fff;}.cls-2{fill:#efefe9;}.cls-3{fill:#cf8043;}.cls-4{fill:#88ab97;}</style></defs><path class="cls-4" d="M538.63,224.56c-3.45-13.32-19.26-32.11-27.88-41.66-19.98-22.13-55.81-28.8-86.66-20.8-15.99,4.15-25.13,8.85-35.53,20.17-18.34,19.96-10.2,28.68-18.15,56.7-4.99,17.59,11.55,49.48,22.75,59.85,19.97,18.49,45.79,21.84,74.08,14.5,12.18-3.16,25.88-3.98,34.95-11.53,23.83-19.83,44.74-45.24,36.44-77.23Z"/><path class="cls-2" d="M351.04,113.01c-5.18-19.96-3.87-49.15-20.19-59.87-19.81-13.01-44.4-7.12-69.84-.52-46.39,12.03-75.72,46.85-64.26,91.02,3.78,14.59,11.44,27.21,21.66,37.13,20.72,20.11,34.56,32.41,65.62,24.36,23.2-6.02,59.33-23.7,70.78-42.12,11.45-18.42,1.95-27.92-3.78-50Z"/><path class="cls-4" d="M142.2,0H21.32c-3.3,6.19-5.77,13-8.59,19.38C5.45,35.83-3.48,47.89,1.39,66.66c5.36,20.65,11.28,29.19,27.81,40.05,18.83,12.37,39.3,28.02,72.92,19.19,15.64-4.11,29.09-12.34,39.41-23.32,6.99-7.43,10.3-23.19,14.15-32.61,6.5-15.92,10.33-26.88,5.69-44.81-3.23-12.47-10.93-17.4-19.16-25.17Z"/><path class="cls-4" d="M547.05,0h-156.57c-1.2,12.42,1.51,25.23,3.37,32.37,5.47,21.08,3.91,46.12,20.95,56.95,18.66,11.86,57.65,5.28,80.74-.71,27.31-7.08,40.86-12.3,49.87-36.93,5.57-15.21,6.73-32.21,2.36-49.08-.23-.88-.47-1.75-.72-2.61Z"/><path class="cls-2" d="M635,65.21c-12.18-5.31-25.31-7.5-39.7-3.77-20.75,5.38-37.6,18.18-48.46,34.83-12.25,18.79-27.15,32.98-10.78,65.9,9.9,19.9,19.14,38.84,36.68,49.63,17.99,11.07,40.18,15.26,62.26,10.05V65.21Z"/><path class="cls-2" d="M635,278.22c-17.53,1.74-33.11,11.47-47.47,22.74-13.74,10.79-28.6,19.86-33.33,38.08-2.99,11.52-5.59,36.13,1.84,46.49,18.47,25.75,24.74,45.77,57.4,54.24,7.21,1.87,14.45,2.72,21.55,2.66v-164.21Z"/><path class="cls-4" d="M635,546.77c-9.01-24.75-28.97-42.96-52.84-50.49-14.28-4.5-28.22,2.14-47.02,9.83-26.02,10.64-43.42,9.33-52.48,33.84-5.65,15.28-1.67,34.72,.78,44.19,5.47,21.08,3.91,46.12,20.95,56.95,18.66,11.86,57.65,5.28,80.74-.71,27.3-7.08,40.85-12.29,49.86-36.9v-56.71Z"/><g><path class="cls-2" d="M519.73,412.45c0,22.79,.59,31.27-10.89,49-19.96,30.85-43.78,34.8-65.34,38.11-70.78,10.89-98-42.51-98-87.11s36.16-65.34,80.76-65.34c22.15,0,42.22,8.92,56.81,23.36,14.79,14.64,36.65,19.52,36.65,41.97Z"/><g><path class="cls-1" d="M393.91,467.2c.34,.37,.21,1.16,.55,1.52s.81,.62,1.16,.97,.85,.56,1.21,.89,.59,.85,.96,1.17,.84,.56,1.23,.87,.94,.41,1.34,.71,.86,.51,1.27,.78,.79,.61,1.2,.87,.69,.78,1.12,1.03,1.09,.07,1.53,.3,.81,.59,1.26,.8,.77,.72,1.23,.91,.97,.26,1.44,.43,.88,.51,1.35,.66,.96,.28,1.44,.42,1.02,.06,1.5,.18,.98,.15,1.47,.25,.95,.35,1.44,.43,1.01-.03,1.5,.03,1-.03,1.49,.02,.97,.37,1.46,.4,1-.06,1.49-.05,.99,.08,1.49,.07,1,.03,1.49,0,.97-.37,1.47-.4,1,.06,1.49,0,1.03,.21,1.52,.14,.99-.12,1.48-.2,1.01-.04,1.5-.13,.89-.64,1.37-.75,.97-.21,1.45-.33,.92-.41,1.4-.54,.99-.16,1.46-.3,1-.14,1.47-.29,1.05,0,1.52-.17,.81-.69,1.28-.87,.9-.43,1.36-.62,1.11,.08,1.57-.12,.78-.71,1.23-.92,.89-.45,1.34-.66,1.01-.22,1.45-.44,.79-.65,1.22-.89,.89-.45,1.32-.7,.67-.83,1.09-1.08,.9-.43,1.31-.69c.42-.27,.89-.47,1.31-.73s.79-.63,1.21-.89,1.17,0,1.6-.25,.76-.68,1.19-.93,.92-.41,1.35-.66,.61-.95,1.04-1.19,.91-.42,1.35-.66,1.12-.05,1.56-.3,.66-.87,1.09-1.12,1.01-.25,1.45-.49,.8-.63,1.23-.87,1.03-.22,1.46-.47,.66-.86,1.1-1.11,.95-.37,1.38-.62,.76-.68,1.19-.94,.95-.35,1.38-.61,.92-.41,1.35-.67,.63-.9,1.05-1.16,1.2,.04,1.63-.22,.86-.52,1.28-.79,.59-.94,1-1.21,.98-.34,1.39-.62,.6-.89,1.01-1.18,1.08-.2,1.49-.5,.73-.71,1.12-1.01,.61-.85,1-1.16,.85-.54,1.23-.85,.81-.6,1.18-.92,.77-.64,1.14-.98,.73-.68,1.09-1.03,.65-.77,.99-1.13,1.06-.4,1.39-.77,.68-.76,1-1.14,.45-.93,.75-1.33,.5-.88,.77-1.29,.7-.75,.96-1.18,.2-1.04,.44-1.48,.33-.94,.54-1.39,.84-.72,1.03-1.19-.03-1.07,.13-1.55,.82-.8,.94-1.29-.26-1.09-.16-1.58,.74-.89,.81-1.39-.15-1.03-.1-1.53,.03-1,.04-1.5-.05-.99-.07-1.5-.13-.98-.17-1.49-.15-.98-.22-1.48,.24-1.04,.16-1.54-.72-.87-.82-1.37,.36-1.1,.24-1.6-.3-.96-.44-1.45-.77-.81-.93-1.28,.05-1.07-.13-1.54-.42-.91-.61-1.37-.18-1.02-.39-1.47-.7-.77-.93-1.21-.16-1.06-.4-1.49-.54-.86-.8-1.28-.58-.83-.86-1.24-.79-.67-1.09-1.07-.47-.91-.78-1.29-.77-.66-1.1-1.03-.67-.74-1.01-1.1-.58-.83-.94-1.18-.94-.45-1.31-.78-.8-.59-1.18-.91-.56-.9-.95-1.2-.91-.45-1.31-.74-.62-.86-1.04-1.14-.89-.47-1.31-.74-1.05-.18-1.49-.43-.94-.34-1.38-.57-.75-.71-1.2-.93-.86-.51-1.31-.72-.91-.41-1.37-.61-.82-.62-1.29-.81-1-.2-1.46-.37-.84-.63-1.31-.8-1.11,.17-1.58,.01-.95-.31-1.42-.45-.82-.76-1.3-.89-1.07,.12-1.55,0-.88-.63-1.36-.74-1.01-.09-1.49-.2-1.09,.33-1.57,.23-.95-.31-1.44-.4-.94-.46-1.42-.54-.97-.31-1.46-.38-1.01-.08-1.49-.14-1.06,.43-1.55,.37-.97-.33-1.46-.38-.98-.38-1.46-.42-1-.09-1.49-.13-1.01,.04-1.5,.02-1.02,.12-1.5,.1c-.51-.02-1-.43-1.48-.44-.52-.01-1.02,.26-1.5,.26-.52,0-1.02,.17-1.49,.17-.53,0-1.03-.45-1.5-.44-.5,.01-1,.12-1.5,.14s-.98,.35-1.49,.38-.99,.12-1.49,.16-1.04-.44-1.54-.39-1,.12-1.5,.17-.94,.6-1.44,.66-1.03-.22-1.53-.15-.94,.49-1.44,.57-.96,.28-1.46,.36-.99,.13-1.48,.22-1.1-.44-1.6-.34-.93,.47-1.42,.58-.94,.39-1.43,.5-.96,.3-1.44,.43-1.05-.04-1.53,.09-.88,.57-1.36,.71-1.01,.13-1.48,.29-.91,.43-1.39,.59-.98,.22-1.45,.4-1.03,.13-1.49,.31-.79,.71-1.25,.91-1.09,.02-1.55,.23-.76,.75-1.21,.97-.81,.62-1.25,.85-.81,.59-1.25,.83-1.13,.04-1.56,.29-.65,.85-1.08,1.12-1.15,.07-1.57,.35-.6,.91-1.01,1.2-.86,.52-1.26,.82-.74,.67-1.13,.99-.79,.62-1.17,.94-.55,.88-.92,1.22-.99,.4-1.35,.75-.45,.96-.8,1.32-.82,.59-1.16,.97-.91,.53-1.24,.91-.6,.81-.91,1.2-.72,.71-1.02,1.11-.15,1.12-.44,1.54-.68,.73-.96,1.16-.71,.73-.97,1.16-.75,.72-1,1.16-.03,1.13-.27,1.57-.83,.7-1.06,1.15,.04,1.13-.17,1.59-.38,.93-.57,1.39-1.01,.69-1.19,1.16-.04,1.06-.19,1.54-.16,1.01-.3,1.49-.58,.89-.7,1.37-.1,1.02-.21,1.51-.12,1-.21,1.5-.41,.96-.48,1.45-.06,1.01-.11,1.51,0,1.01-.04,1.51-.07,1.01-.09,1.51,.09,1.01,.09,1.51-.39,1.02-.37,1.52,.09,1.01,.12,1.51,.08,1.01,.13,1.51,.5,.96,.57,1.45-.06,1.03,.02,1.52,.11,1.01,.21,1.5,.1,1.02,.21,1.51,.33,.96,.46,1.45,.28,.97,.42,1.45,.08,1.04,.24,1.51,.34,.96,.51,1.43,.96,.71,1.15,1.18,.26,.98,.45,1.44,.1,1.06,.31,1.52,.48,.89,.7,1.34,.48,.89,.71,1.34,.68,.78,.92,1.21,.67,.77,.93,1.2,.02,1.18,.29,1.6,1.02,.54,1.3,.95,.05,1.2,.34,1.6,.84,.65,1.14,1.04,.43,.96,.75,1.34,1.14,.35,1.47,.72Z"/><polygon class="cls-3" points="444.14 433.76 444.02 434.61 443.77 435.43 443.51 436.25 443.24 437.06 442.8 437.81 442.55 438.62 442.23 439.41 441.82 440.16 441.48 440.94 441.06 441.69 440.77 442.51 440.11 443.1 439.7 443.86 439.3 444.62 438.68 445.23 438.13 445.87 437.53 446.49 436.92 447.08 436.4 447.77 435.66 448.23 435.09 448.87 434.43 449.42 433.66 449.81 433.07 450.46 432.41 451.01 431.56 451.26 430.83 451.7 430.12 452.19 429.35 452.56 428.54 452.84 427.8 453.3 426.95 453.47 426.12 453.65 425.37 454.15 424.55 454.37 423.71 454.56 422.82 454.47 421.99 454.69 421.14 454.72 420.31 454.98 419.46 455.07 418.6 454.89 417.75 454.88 416.89 455.14 416.05 454.87 415.2 454.78 414.33 454.84 413.5 454.64 412.68 454.36 411.81 454.36 410.98 454.12 410.16 453.9 409.4 453.45 408.62 453.13 407.79 452.9 406.93 452.73 406.23 452.2 405.51 451.74 404.74 451.37 403.95 451.03 403.24 450.55 402.65 449.91 401.95 449.42 401.22 448.97 400.52 448.48 399.89 447.9 399.39 447.19 398.76 446.61 398.2 445.96 397.63 445.33 397.11 444.65 396.68 443.91 396.11 443.27 395.69 442.53 395.16 441.85 394.85 441.04 394.26 440.39 394.05 439.55 393.66 438.79 393.39 437.97 393.1 437.17 392.82 436.37 392.37 435.61 392.14 434.78 392.19 433.89 392.09 433.05 391.71 432.24 391.76 431.38 391.52 430.54 391.5 429.68 391.65 428.82 391.49 427.97 391.57 427.12 391.64 426.27 391.77 425.42 391.8 424.57 392.02 423.74 392.26 422.92 392.31 422.05 392.48 421.22 392.62 420.36 392.86 419.54 393.19 418.74 393.58 417.97 393.96 417.2 394.39 416.46 394.64 415.63 395.2 414.96 395.69 414.27 395.99 413.44 396.44 412.71 397.06 412.1 397.52 411.38 398.23 410.86 398.68 410.12 399.23 409.46 399.87 408.89 400.54 408.36 401.2 407.82 401.88 407.31 402.55 406.78 403.15 406.15 403.91 405.75 404.63 405.29 405.47 405.03 406.1 404.41 406.85 403.99 407.75 403.89 408.43 403.31 409.25 403.05 410.09 402.88 410.93 402.7 411.77 402.53 412.59 402.32 413.4 402 414.26 402 415.08 401.66 415.94 401.67 416.79 401.5 417.65 401.75 418.5 401.51 419.35 401.66 420.2 401.77 421.05 401.82 421.93 401.72 422.77 401.91 423.56 402.3 424.44 402.28 425.28 402.46 426.06 402.87 426.83 403.22 427.73 403.25 428.46 403.75 429.23 404.11 429.98 404.52 430.84 404.71 431.47 405.34 432.32 405.58 432.93 406.21 433.64 406.68 434.37 407.13 435.13 407.56 435.76 408.13 436.26 408.85 436.83 409.49 437.44 410.08 438.16 410.58 438.54 411.38 439.24 411.92 439.64 412.68 440.28 413.28 440.57 414.11 441.18 414.74 441.55 415.51 441.86 416.32 442.4 417.01 442.48 417.9 442.91 418.65 443.11 419.48 443.63 420.21 443.82 421.05 443.91 421.91 444.06 422.75 444.16 423.6 444.56 424.4 444.62 425.25 444.5 426.12 444.74 426.96 444.72 427.82 444.73 428.67 444.65 429.52 444.77 430.39 444.47 431.22 444.34 432.06 444.16 432.9 444.14 433.76"/></g><g><rect class="cls-3" x="499.39" y="431.93" width="3.31" height="44.8" rx=".91" ry=".91" transform="translate(-173.77 408.68) rotate(-38.33)"/><path class="cls-3" d="M488.8,438.87s-4.29,3.08-7.43,.1c-2.86-2.71-5.88-10.57-6.4-11.98-.05-.13,0-.28,.1-.36l.55-.43c.14-.11,.33-.09,.44,.04l6.88,7.99c.11,.13,.31,.15,.44,.04h0c.14-.11,.16-.3,.06-.44l-6.19-8.53c-.1-.14-.07-.33,.06-.44l.49-.39c.13-.11,.33-.09,.44,.04l7,7.9c.11,.13,.31,.14,.44,.04h0c.14-.11,.16-.3,.06-.44l-6.19-8.53c-.1-.14-.07-.33,.06-.44l.65-.52c.12-.09,.28-.09,.4,0,1.31,1.03,8.69,6.88,10.06,9.06,1.5,2.4,1.22,4.8-1.93,7.31Z"/></g><g><path class="cls-3" d="M497.43,394.55c2.66-1.12,7.7,1.73,10.26,6.6,2.59,4.92,1.07,10.48-2.43,11.95-3.51,1.48-8.51-1.33-10.26-6.6-1.89-5.7-.12-10.88,2.43-11.95Z"/><rect class="cls-3" x="510.42" y="407.08" width="3.31" height="44.8" rx=".91" ry=".91" transform="translate(-126.65 232.75) rotate(-22.87)"/></g></g></svg>