<?xml version="1.0" encoding="UTF-8"?><svg id="_イヤー_1" xmlns="http://www.w3.org/2000/svg" viewBox="0 0 138.48 130.68"><defs><style>.cls-1{fill:#efefe9;}</style></defs><path class="cls-1" d="M5.89,30.9C-2.13,41.14,2.39,54.98,.99,67.04-2,92.74-.01,111.04,32.99,120.04c11.01,3,22.47,8.12,33,10,11.07,1.97,16.29-.97,27-4,15.44-4.37,22.92,1.56,33.02-12.48,11.12-15.44,8.52-24.55,11.64-41.91,4.75-26.43-12.12-36.15-24.39-50.97C106.74,12.79,95.17-.83,71.99,.04c-12.39,.46-27.24,8.87-36.44,11.94-10.64,3.55-20.45,7.16-29.66,18.92Z"/></svg>