<?xml version="1.0" encoding="UTF-8"?><svg id="_イヤー_1" xmlns="http://www.w3.org/2000/svg" viewBox="0 0 285.1 287.08"><defs><style>.cls-1{fill:#efefe9;}</style></defs><path class="cls-1" d="M281.53,106.82c-6.38-24.62-22.73-32.39-39.13-49.56C207.47,20.66,177.9-10.34,125.44,3.27c-21.61,5.6-54.82,23.49-70.81,36.99-16.8,14.19-23.61,36.54-32.42,56.45C9.5,125.42-6.07,146.46,2.42,179.2c9.34,36.03,19.68,50.94,48.52,69.88,32.85,21.58,68.57,48.89,127.22,33.48,27.29-7.17,50.76-21.54,68.76-40.68,12.19-12.96,17.98-40.47,24.68-56.89,11.33-27.77,18.03-46.91,9.92-78.17Z"/></svg>