<?xml version="1.0" encoding="UTF-8"?><svg id="_イヤー_1" xmlns="http://www.w3.org/2000/svg" viewBox="0 0 243.35 228.8"><defs><style>.cls-1{fill:#88ab97;}</style></defs><path class="cls-1" d="M234.08,49.09c12.77,16.31,5.52,38.39,7.73,57.61,4.7,40.97,1.48,70.16-51.21,84.59-17.59,4.82-27.14,22.75-43.14,28.77-25.55,9.61-46.31,12.83-67.04,1.7-22.54-12.1-28.69-27.06-38.28-40.57C24.57,156.49,5.71,145.93,.77,118.26-6.76,76.12,43.09,56.74,62.72,33.06,73.14,20.48,91.65-1.26,128.65,.06c19.78,.71,43.46,14.08,58.14,18.95,16.97,5.63,32.63,11.36,47.29,30.09Z"/></svg>